<mxfile>
    <diagram id="iD6LiCOWY0wTWrDGkSI9" name="ページ1">
        <mxGraphModel dx="927" dy="683" grid="1" gridSize="10" guides="1" tooltips="1" connect="1" arrows="1" fold="1" page="1" pageScale="1" pageWidth="827" pageHeight="1169" math="0" shadow="0">
            <root>
                <mxCell id="0"/>
                <mxCell id="1" parent="0"/>
                <mxCell id="22" value="" style="whiteSpace=wrap;html=1;aspect=fixed;" vertex="1" parent="1">
                    <mxGeometry x="100" y="110" width="510" height="510" as="geometry"/>
                </mxCell>
                <mxCell id="23" value="" style="rounded=0;whiteSpace=wrap;html=1;" vertex="1" parent="1">
                    <mxGeometry x="110" y="235" width="120" height="350" as="geometry"/>
                </mxCell>
                <mxCell id="24" value="&lt;b&gt;&lt;font style=&quot;font-size: 15px&quot;&gt;メニュー&lt;/font&gt;&lt;/b&gt;" style="text;html=1;strokeColor=none;fillColor=none;align=center;verticalAlign=middle;whiteSpace=wrap;rounded=0;" vertex="1" parent="1">
                    <mxGeometry x="130" y="250" width="80" height="60" as="geometry"/>
                </mxCell>
                <mxCell id="25" value="ヘッダ" style="rounded=0;whiteSpace=wrap;html=1;" vertex="1" parent="1">
                    <mxGeometry x="100" y="110" width="510" height="60" as="geometry"/>
                </mxCell>
                <mxCell id="26" value="テスト受験" style="text;html=1;strokeColor=none;fillColor=none;align=center;verticalAlign=middle;whiteSpace=wrap;rounded=0;fontStyle=0;fontSize=12;" vertex="1" parent="1">
                    <mxGeometry x="130" y="325" width="80" height="60" as="geometry"/>
                </mxCell>
                <mxCell id="27" value="テスト結果一覧" style="text;html=1;strokeColor=none;fillColor=none;align=center;verticalAlign=middle;whiteSpace=wrap;rounded=0;" vertex="1" parent="1">
                    <mxGeometry x="110" y="385" width="120" height="60" as="geometry"/>
                </mxCell>
                <mxCell id="28" value="" style="shape=image;verticalLabelPosition=bottom;labelBackgroundColor=#ffffff;verticalAlign=top;aspect=fixed;imageAspect=0;image=data:image/png,iVBORw0KGgoAAAANSUhEUgAAASwAAAD/CAIAAADEwnwXAAAXk0lEQVR4nO2d25LjKgxFlVPz/7/s8+A0wVwFSELCWjVV4yQ2YGAjce3PdV3gOM4+/tudAMd5Oy5Cx9mMi9BxNuMidJzNuAgt8fl8Vm4eetwRw0XoOJv5tzsBzjBtg9aec4qf9dkpJXy8JKzw+aSFFb5JfkpUWrvHi14J7o4eyHVdt8DCxY33CXXiIrTBon5uu3dd1x2Om0FVeGHY4BZPcCwbdyb35OXrCtSGW0ID5LLJHc7E82wH9R6/FPOm8T21a1ZchCeT6C2I+SU6RLY4xXsk/QWfojDAaG3IK1/szYYw8y+PIX612psmwgsf84v8WVpchIcTV8S8vberwFoLknwfRqSKjyBfn9trcBG+iLYpsE7XsNekuB0X4YGoqmEcFFcpxNYvuTlcx8NXtftjgh9BlvQSLkLnQIqy6YoNfz8tLkKTtEcRuk8dj6039Xlbhxjy+p/U0O4i2NrsQuP7etQS6nBL6FCixAINWcLt69pdhA4l3BU4rH1NvsxXFBV/Ujg0Ci5CE5w0v7dObW6wdnO8dAHzbHEjGCsuQhu8WXWLBB3Wfo0/ujvqOC1qCsllls8N6nREb3x01ADyDpJFMEs94x1e04M35LgIDTB6MoXvGLSFu6MGwCsqmbt3KZrA9xOeQ7xjIO4IOcpxER5C0QV1HZrARWiAtpDujYKNIfjiTkJHD94ntA1mDCbf9eOowi2hAYI1S4zekK7e6ZqaOOjJLaENipviRy2b8jlrcsKCtfb7Fu+RdBzcRbHH+jzh8a5pftIMVBoyJH7Qk/ODRD8Y+6CT7lp2P+jJYYTWk7Trmtb8RrsHPZlsDl/IkOHiu3k7xdQ2Vm8n+M56ZwbultuuSWzgBz05ZMiYKdMTiTXbuCUxc7gI9SKsCrLRGvL6nx309PixssMw/7KhzL2idRFqZJd/SOCa8ldmzISeH/TkLLHXLVx1TcUTXjTgftCTM4+SjpndicQEP+jJGUBbI21l1HRuVVr861BoHLgIVaDT7OgcNcVYKj/oyRlgonLILw3VXIMDftCTM8OEWjB6YLJd2kziMfh+wm3MKXDvwKmtSXAreJ9wA3PenQZDpLxzZRQXoTSsWgpdns+H62+z6BytMY27o6JM113EYEz6Z8lYPUd3TQlxEQrRPhOt+2zjwUR+t6EKP/Fx+TluRLhTIcGi81as6Nd1JV+HGP7WiKTfM+Gu6SKefezwzNolAZb/WEV8dBjvTJfrcAF3RxlZcUHrYaZfXFd1rDI+ToXVb3TXdAUXIRfxEUNEARb6ft3wJXXoozVzuBdBD8dMWiK/dhSlUzR/l+Rpy2PnjuIwfJ6QGFb/8w54Iorr+oYjMMvnE4mjuDtKCW3Ny/3PlU7mn4Dva/YunLumeNwS0kDrgxXnHqgUfi+mkTGJ7ppicJ+BAMKq3J76W09PPnko4De6a9rGc2cVQgMVE4sESDccFnU4GsUorsMGnjXzUNXdmvxgtu5iFppSxTWUKnDXtISLcBKSKtuQ30oUmAe36FAmCnN4jsywXpO68oMFo4FMXk2HK1FjcB0meHaMsV5H2/IDGoVjQ6gt8nbXVBIX4QDLmyEeH4shEXm5Q0Op5fS4ayqG5wKKZf/w8bEmv5UokqAGR1PLCZNxTbmj0I+LsM9Kg42R32IUJKE1Nh+6SeTm1S+PYWGI8vGxIT9AmALMoZrxzVMTGyH8cuw+WsPEe9+8y0rNy1dd16LADWOW9+wuBlt68HvB119txv5S19QXcJeZ3g0Yr7q+LgIFShKtoSn+6jsSWVBXDzSw6M7dtOUHfNOASR0ej6RrD8FdU1Le9bZdZo/lfXxsP804Ddg2ISNxdg+JcteUEBfhj5VBxZvu0yTHrnUV+Pn7cNWUh0jCdh3KRKGBV7wkhum5tRuM/IBpGjBOyfW44XdnzUh2jDYAp1+N4Q06PP8Nu4zWpFH5AYUBrI6OZgpMbihEXRRk1dwB8DvYbY53Td++s35uhdcNUn7AV4E+4f/WX6JN0xBujF8nXJcHY1ovy72DXuAQgL28V4RD9WZCfsBab54GsNr3u3+vVWKEGq+/E6K6OixHQQe31DdybOvSZmKfwQ0+t8hXov3SEEtuZFa9n6RK1/EnTOaRJwznmcTT3gfD6Ha7myH5wVYXtHnGDC5tdTVKDkE1ojip3h71Ml3QCzUfH4dySMwFXUnDWCJHBnImoxjnJNf0RSIcOvThZjRvNCgQmYyZpA6q0V1TJCe8Awb82Uc3E/IDpob5OQs/seC7cRtMLQ+qjMOSRTGYHvN12PwLdOnWg0X5gRoD+HuI6JDS+iO9FCUTk+6aNjl8F0V3M0Sy50inAj9Qsz4ETGxceKwUuEpa/Pz9m41iMD22t18cawmHDOBcHqhyQR9Pzxi3iSOGvxfpQ5Wuox+WUeNMEbZr4br/2Y1iiSkX9BEA54Glz/u/F+WHSmqcaFNGMddLNJZcDM1ZssfHwwzg79mlQ3FIdfi9qfQlZ72zpUNLae3SkAeJ/EDKAC6aC8YNU+X7vxf9J6Y2c8xhyDU9R4T1tVqPjyuvKzMGsx4FSTrnlrZjn5BSowmTaCCJGIp5TSs/0O2CPoIk+0NRnDoMURSVR5fT+nWoPX1divIglB+ocUHxDQFhguf2mkyuNGLrOip3TW2LMK9ttPIrRkHDoAEsbJZH3EzF6KaT1elWHjWqNYlKk4Uh22/++JVEfqDDBW3trEfcT4KMDiHJcOquo04dmtzUm5QWufxAbB2MYh8p4RrcU9veBFyLApKcDyEkamyeA9COQqFrqrFhaPM8QOXxE5X8QIcBrAazwxIOBT7dOQxRQKMIKJxVVSZRUVK6xGXDIT9QMwbTCqazGOiRL0zvgmmnFnUImLJYU6Mek2hGhNHIxON7wuTrnwbsKjDx6PaaRAkdfu8rfYmLVINJRA2L55Qm5ao1YP09iwqklR/odkEBrcDGNTkyOgR80UwN5NDO6EwE1R+YKeqteBtH2YcyYJIfWHBBoZnIdjVlHYroBn7hDmtrRwH4MpoayNk+WjPTxS/NzlUN5vpiYj7/E/gUSLoOpq1ATAG1A1kHuW1lJf759KOdVWQUcW3PhcBiCTHEBjD5BjKJose4PwC8BhCfmMGg40tKjyAw4ecvNogrga/bQ1ixV0XzWLKN+CwK+f8NLCqdhkRrUM4T/hmuT/Iyoz7qLb84e8hrjq1pwFqPYDTwja4plQ5hpewQapzLosVeWF+ENVczvyeOfjq/7pCicIaeRkZhwAVtxbOQftZR03bgJDoEEpPeVON9oLnkqGlHhMh05PKbgLXv9xeFJRe0HA9F5djlmtLqENaLsj6Qc8EFH/qtVUWIl63lA6RDCyxuuPxEEQMIW6fI8exyTQl1CIRlGofR6zomJK7ixAhIWYS5C5r0RBvf19xXTH7xyQ/cAGbsck2pdAhMTUnNPNbT8L29NCqJoWoJa8Obxe/zHA/XQ54Ph1okpgE5uxDcU1gCJpFbh8BQyt88QfujtVFJDGTuKGb8pkYoksSurmerkAv6YXRBBYYHuE1iUeSEOoTBtr5BWvfuT8wlQNknrLUEuAz6zgpeF4F9B1YDYtkFbcA3WlMTOYcOYaG2pM/eaYPCARx5P3C8wv8gE2HsfCY/DdnouDxyNQIuiwUMoGkXtIa8axp0SBUFUCx8AWh1CJObK/72gA6JJ+shywhk5/Cv+O9H0nax0REtJsNd0GnkXdNbhyTGMI6lUT3CbdUg0LteulV6fnQUmoOctS8Ti5wnsZssTLvYcFYlXFDmady9CgzIu6ZA5JSGWJLKMNO1ufoDpO3QsOORGor8JjKeACPTFYQDOaXQo2sjLihVIlm94iSRJIu8i7H8BYuvT/cD38cFBKJIhPDrPX4/DiVttN+ICzS+lKuRB4eWhAwPY/X9fj22+cog5fLEaPzTaOHFh7rsoed5uyI3S+mIywM+d8hLAdbiGZxHFaY42EYVchz4XLnHhHIPhTWtQEmUnra2OGi2Osmh0gXdosAbsVHTuUkL4v6IuGuoS4R5eZCsMIShclI5CrpRgTdio6Z4HRJr7zkvLzlCpkuERfA6bIzpodSo0gB+k/OnAY70DCWDySTGIm/rEKm9seLbmq+qRUi7ouIvzMoCAEEFqhoMG0XAJOY6ZBl1C2zqCgbUiTCxZrQrKpKIfh+eY2JKXNC58OMLvrhYJxJD4v90KNJsxdVBtqHUODqacH1nbJA3Tw3lRT2B4WdxhFE7pvDh58s9Ron5oguj0Ezhr3T5BrJaZIl2G3WWsAGhU9og6X2pmj0fjYLPXoXwa1FPkOT56JqNqSg5A0ejUYR51eHoHLajXp3kiJBxQWtRsM4uxFGs5E8IJ/qSIGG9iP8ungmX77RrFGERfOeQtvlfUSN37QdcjWEdSglRjL4sJj/n0jv2pgrGyMyIEBiW2w/GPqbGXS5oDSWuKSb35BxRBQoEtSJs1xhWHXYrK0aNrFsQYNbGbnRN8X6EqCNaiH3DBJJSEdZAdg65W/0Qy30R1zAlLmgNYdd0ukc9nbr+q+2eFcwxJkLgmzm8AD4wd9RkrkamWk6lcNbGYiUTwqPsElGjQNAswoY14+4crhhSwmHVBFphk5vE/H1HpxCjrUxsEml2BXctZtIrQgwNHcp4pI1IadXIvUxsOoTa2y0EO28GO5HqmBXMsSpCsZnDdRbVKDOUMpeq0aeaAd6hsQ3M6OsKBlSLsN1OMxYYjyGdUKOMMce7puTa+wv2Fz7v+zbM5L6F9apF2GXvzGERjHqRahSuFo2Uj2pvLuXsZlBNJUmwLcJAUYdbuoVD1NQoMM9RS08cNZPdS6Camq+WtdauYEC7CBFT51ydQ0kN842pTqQk7I0QSENs+lhyG9cV3NtYG9jK1IUs9+5wlhvOeJJ64lmIlMC6FykhxJiM7k6EIzY1j46AOfw1tFtCJLXOoX6PNCdJc6xD8hcpBi6WY4RrRMtp1t0VDBgQ4ZCQaJ1SDRqOtUHlrG53eiFbI0qfz2gfYnsRGxAhElUzh+TqTWzjypTj6FNDjL41V0IUzwrmnCNCqIxxa7Bmo+QeaZz++FfczqAB7cnkFe1mpWqajZT5USIElTOHrDSGVeV9TqSA2QebjHQFAzZEOGHNqHQ4bUiFLXCiPf3GP04dZWoHFa4ho06YokgIWRqvyseO9RPNUqyzPs8xgUCNJN81/0izqa5g4EARgsC8E44VIZkDt/RUJCk6Sh+PGRGOVui7PpCUuiEtxVPtatOcSJXM/I53BTX4omBIhNP8+T96K2WN0TQXB1GnHyeH4/imX5qNle2Dk0WYdw53pIFA/EkgRbUUvxRreroC5k2Fza5gwJIIJ6oUVbu73ZDGq0k57JXUxkXOeAeDUeKLgi0RzhE6h9uFNEGc5uuP/Lbm1uf9b810juj3ra3NCuacL8LArqrILQPMHuKNCRByRC1jTIRz9SkerUDcDQCF0t1lUtrxIn0qkkBWKO+2XYv3CqU5HoYeXxTMiXCaaJDmiMbTCHwH2v/KUYuU5nmLCOFXFTYUGpMVHWrO5dPA2tx9zaB9BYJFEa5XpumnVXmkUxvYacIZjLT8/VK8a4WgyhcFiyJcQcPM4Uvgc0StzwrmvEuEsG9ZKa0VnW7LZZIh0cadokAwKsLlmnRv9tkS9SRxvKuDinRB9SKq/jQf7314woI/qs0XBaMiXCTaele74/5ZJjljkNQh1qZEwBHVpqJF3ihCAAjlKWnVNCxeIaSyhJUvvvD/OXl4Y1WE6xV6ujHd65FSGQHWjf/tUJfiXUuvQl8UrBxvQU6ogoYOpAnnVtCGSXokHACrI3opVdEiLxVhgpgOp+0PX+WjSo+AI3oqVt1RINuq970YCumw3h0hXTkPa55uVlCtFTUswkWCkFSWywPmiQSCBoXREb357kdTqqJF3ivCGMIDaRBx6Tp1ApaTxO6IHqi7B7ZFSO4WfhLnpx62e6QJmIZirEEhzV3NVtS2CAnRuaxUrOrg25SiGaRP43ELRBu8WoRJzRNrKJE1XrjxnrDt7A0W0yndyjAvQlq3cKhzyLz4a0OdWz64oMXAG1F3BZUL2LwImeBu4412KePazO6Ivoa3izAXg4YWc2PLjXaVeaKvdAWVm7JFThAhuVXBFzeHQdte4fAvNTDSOfRSTKd0a+UEEXIQzrPk8462HDaBpJ02Xkd0/9tL4yK02j3bBbsjWohRRcPExyEi5BAScuaQMGpVta39XmPLP7vvxTYrqCpLaxwiQqOInTQxR5483jWiut5eDhchAMKaubsK3I4ox8mIRjhHhPx/cYExarVVbX0Kp/NqnK2b2lxNOEeEfLAuK2U9ZoKEPx1eQO6IvmmBaAPfWf+lLYbr4nLGOA6toOPKLjgjyVDePFFxlAjprcoF8AH4AFxfHXIchKGtntUaBBYzyPbqhgR8lAhlKOpwTv96KgpGeJQvqNPwb8L7hD+64yu0ncPtCrwN+/0v4bq+/55fEg194bqC2/NHjNMsIfc4B1XncGMNW/E2KbOX8+1tCfg0EQpQ6xxqHucU6ualkZZy460LRBu4CB8MCWl6kEZGq82Jzflgl9oatBOhtjnj4MA+ocCC7JXOIXf16nbz1iOfzGGpWUFzAnZL2COapXh8Xeoc7vJIt3ibbar5YEkdQhxoCRcZ3dI6ZBIIJTo6tknLsDEc6QqaM2WLnGkJhS0SsnO4niSmbt4cA5ksOCtoUcBuCZfIO4c1E7FSOQS6eXOgXtYXiPY40xIuMmRImZaVKuzmLcF0Gs0RHGsJJQ+t6HYOkRVrbzdvjk4+y84KGhWwW0JK7s5hYki7NcO60au+ry8QxeEiLDM6tBOcUvQgTTWcQ5jqCho1ZYsc644CoUd614peSOXdAs8jq815m0iqWS34RnYF7JaQkmhZafgLpNf5Rg8A4PHKvkB0CBdhlZXJxrs2QsHt/DzvOZHZ97JryhY5XITy68gqy9l+l2IpkaOoOtkXNS3gw0W4heuyXSf6dG3dua/OgYuQngMVOKi6A3OAk1dk1tqSsc/QSMMh9W/Z1o3mA0EZmcUtIY7KhqZDwAylHPniOnARUmKmSeZXnebDPrThIuyAr0yq69yOoZRDso6fV4jwja3yawYwDyjZV4hQgP1VQaXq3tj8jeMi7POtSfVavKeeqVRdTleHrtK3iJCvSZarQ0ZUl3NC5nPyFhGaxKzqnCFchCh+HulzqpC4JT5XdTVjeIYpW+RFIiR3ighCO1d1ORrzXwcvEiEtMzXg9QtTfLC0iIsQy28FKZ7Xq66NC/LmXSKkaonn//bl66scexEY5F0iJKF8sm2NQ+oJJe6UJrgIh/mOkdZ/djC4DgOvEyH9GF2iyFNPjtHEYQJ+nQhX+JT2QDeWszltDtPSNCefO0qL1xhyJP9UgWbeKEIve9Oc1xq+UYQTnFfwSvAGEVyEGFyBrLgOXypCfMG7AgV4eXG8VISOowcXYYsj212dvNkpfa8Iu6XuChTmtSXyXhE6jhJchGVObXSV806n9NUirBW5K3AjLyyUV4uwyMGFbYW32UMDIozLY7RsXlWW76FmKlce34gBEd58Pp8775KL8DHcNhRs0ui6GVTCq8pF+1amkPvxPsC7eMhL5eySNgdy52etCY6rSvup5BF5VItwThVJ/ubZXQzTFaiQXIehNENDXLwn/tj4KWajj6pXhLHdC85JXAaYk2Qx0nrbMIA54kKMq0S4IfGSzDWmekWYZGVRco1fJ3ApmqPoi4aL204mNySlrEGxekV4k/QDY5KWb6UJ1FASzihDJV4cRyBvx+fQLsKYYt+g+KtzPO1+YHInlPxYPY6rahF2h1i6j+TfKMl3Z47Y1YSKOxoI4+rxN0kIGtArwng8BqIsazdgEwMzjiES7RVrRW3QLn8k+WYXekXYcD6Z5gkdo2AmHgpnVapRo14Rxlgfg3b4iD2mfM4wV1rO9upkQ4T5JOF9sT37nO3EHb9QT4oVo7ZIgzmBfWyIEDkO5ryWpIdiq5LYEGENzNJtVasEnXWKhZ4v7SgunxJI3gSWGgzHORIzW5kc51RchI6zGReh42zGReg4m/kf4lSWGCU1HWMAAAAASUVORK5CYII=;" vertex="1" parent="1">
                    <mxGeometry x="380" y="210" width="185.29" height="157.5" as="geometry"/>
                </mxCell>
                <mxCell id="29" value="コメント" style="rounded=0;whiteSpace=wrap;html=1;fontSize=12;" vertex="1" parent="1">
                    <mxGeometry x="357.65" y="500" width="240" height="70" as="geometry"/>
                </mxCell>
                <mxCell id="30" value="●●さん|logout" style="ellipse;whiteSpace=wrap;html=1;fontSize=12;" vertex="1" parent="1">
                    <mxGeometry x="450" y="120" width="150" height="50" as="geometry"/>
                </mxCell>
                <mxCell id="31" value="評価（システム）" style="rounded=0;whiteSpace=wrap;html=1;" vertex="1" parent="1">
                    <mxGeometry x="357.65" y="410" width="230" height="57.5" as="geometry"/>
                </mxCell>
                <mxCell id="32" value="ヘッダ" style="rounded=0;whiteSpace=wrap;html=1;" vertex="1" parent="1">
                    <mxGeometry x="100" y="110" width="510" height="60" as="geometry"/>
                </mxCell>
                <mxCell id="33" value="" style="rounded=0;whiteSpace=wrap;html=1;" vertex="1" parent="1">
                    <mxGeometry x="250" y="235" width="80" height="350" as="geometry"/>
                </mxCell>
                <mxCell id="34" value="java" style="text;html=1;strokeColor=none;fillColor=none;align=center;verticalAlign=middle;whiteSpace=wrap;rounded=0;fontStyle=0;fontSize=15;" vertex="1" parent="1">
                    <mxGeometry x="250" y="250" width="80" height="60" as="geometry"/>
                </mxCell>
                <mxCell id="35" value="css" style="text;html=1;strokeColor=none;fillColor=none;align=center;verticalAlign=middle;whiteSpace=wrap;rounded=0;fontStyle=0;fontSize=12;" vertex="1" parent="1">
                    <mxGeometry x="250" y="310" width="80" height="60" as="geometry"/>
                </mxCell>
                <mxCell id="36" value="javascript" style="text;html=1;strokeColor=none;fillColor=none;align=center;verticalAlign=middle;whiteSpace=wrap;rounded=0;fontStyle=0;fontSize=12;" vertex="1" parent="1">
                    <mxGeometry x="250" y="358.75" width="80" height="60" as="geometry"/>
                </mxCell>
            </root>
        </mxGraphModel>
    </diagram>
</mxfile>